<svg xmlns="http://www.w3.org/2000/svg" xmlns:xlink="http://www.w3.org/1999/xlink" width="500" zoomAndPan="magnify" viewBox="0 0 375 374.999991" height="500" preserveAspectRatio="xMidYMid meet" version="1.0"><defs><g/><clipPath id="0f72a1ef67"><path d="M 15.710938 139 L 79 139 L 79 236.292969 L 15.710938 236.292969 Z M 15.710938 139 " clip-rule="nonzero"/></clipPath><clipPath id="852e294f7f"><path d="M 15.710938 139 L 79 139 L 79 213 L 15.710938 213 Z M 15.710938 139 " clip-rule="nonzero"/></clipPath><clipPath id="92d12e1738"><path d="M 101 138.792969 L 120.710938 138.792969 L 120.710938 159 L 101 159 Z M 101 138.792969 " clip-rule="nonzero"/></clipPath><clipPath id="76317ab9b0"><path d="M 56 140 L 120.710938 140 L 120.710938 236 L 56 236 Z M 56 140 " clip-rule="nonzero"/></clipPath><clipPath id="573954cd3c"><path d="M 56 140 L 120.710938 140 L 120.710938 212 L 56 212 Z M 56 140 " clip-rule="nonzero"/></clipPath></defs><g clip-path="url(#0f72a1ef67)"><path fill="#72ffff" d="M 40.6875 143.675781 L 74.4375 177.40625 C 75.117188 178.085938 75.722656 178.824219 76.257812 179.625 C 76.789062 180.421875 77.242188 181.265625 77.609375 182.152344 C 77.976562 183.039062 78.253906 183.953125 78.441406 184.894531 C 78.628906 185.835938 78.722656 186.789062 78.722656 187.75 C 78.722656 188.710938 78.628906 189.660156 78.441406 190.601562 C 78.253906 191.542969 77.976562 192.457031 77.609375 193.34375 C 77.242188 194.234375 76.789062 195.074219 76.257812 195.875 C 75.722656 196.671875 75.117188 197.410156 74.4375 198.089844 L 40.6875 231.824219 C 31.46875 241.035156 15.703125 234.507812 15.710938 221.472656 L 15.710938 154.003906 C 15.703125 140.992188 31.46875 134.460938 40.6875 143.675781 Z M 40.6875 143.675781 " fill-opacity="1" fill-rule="nonzero"/></g><g clip-path="url(#852e294f7f)"><path fill="#00d7ff" d="M 40.6875 143.675781 C 31.523438 134.515625 15.9375 140.914062 15.71875 153.785156 C 15.71875 153.785156 68.828125 204.011719 60.382812 212.199219 L 74.46875 198.121094 C 75.148438 197.441406 75.753906 196.703125 76.285156 195.902344 C 76.820312 195.105469 77.269531 194.261719 77.640625 193.375 C 78.007812 192.488281 78.285156 191.574219 78.472656 190.632812 C 78.660156 189.691406 78.753906 188.738281 78.753906 187.777344 C 78.753906 186.820312 78.660156 185.867188 78.472656 184.925781 C 78.285156 183.984375 78.007812 183.070312 77.640625 182.183594 C 77.269531 181.296875 76.820312 180.453125 76.285156 179.652344 C 75.753906 178.855469 75.148438 178.117188 74.46875 177.4375 Z M 40.6875 143.675781 " fill-opacity="1" fill-rule="nonzero"/></g><g clip-path="url(#92d12e1738)"><path fill="#590696" d="M 120.710938 148.457031 C 120.710938 149.085938 120.652344 149.707031 120.527344 150.320312 C 120.40625 150.9375 120.226562 151.535156 119.984375 152.113281 C 119.746094 152.695312 119.449219 153.246094 119.101562 153.765625 C 118.753906 154.289062 118.355469 154.773438 117.910156 155.214844 C 117.46875 155.660156 116.984375 156.054688 116.460938 156.402344 C 115.941406 156.753906 115.390625 157.046875 114.808594 157.289062 C 114.230469 157.527344 113.632812 157.707031 113.015625 157.832031 C 112.398438 157.953125 111.777344 158.015625 111.148438 158.015625 C 110.523438 158.015625 109.898438 157.953125 109.285156 157.832031 C 108.667969 157.707031 108.070312 157.527344 107.492188 157.289062 C 106.910156 157.046875 106.359375 156.753906 105.835938 156.402344 C 105.316406 156.054688 104.832031 155.660156 104.386719 155.214844 C 103.945312 154.773438 103.546875 154.289062 103.199219 153.765625 C 102.851562 153.246094 102.554688 152.695312 102.316406 152.113281 C 102.074219 151.535156 101.894531 150.9375 101.769531 150.320312 C 101.648438 149.707031 101.585938 149.085938 101.585938 148.457031 C 101.585938 147.828125 101.648438 147.207031 101.769531 146.59375 C 101.894531 145.976562 102.074219 145.378906 102.316406 144.800781 C 102.554688 144.21875 102.851562 143.667969 103.199219 143.148438 C 103.546875 142.625 103.945312 142.140625 104.386719 141.699219 C 104.832031 141.253906 105.316406 140.859375 105.835938 140.511719 C 106.359375 140.160156 106.910156 139.867188 107.492188 139.625 C 108.070312 139.386719 108.667969 139.207031 109.285156 139.082031 C 109.898438 138.960938 110.523438 138.898438 111.148438 138.898438 C 111.777344 138.898438 112.398438 138.960938 113.015625 139.082031 C 113.632812 139.207031 114.230469 139.386719 114.808594 139.625 C 115.390625 139.867188 115.941406 140.160156 116.460938 140.511719 C 116.984375 140.859375 117.46875 141.253906 117.910156 141.699219 C 118.355469 142.140625 118.753906 142.625 119.101562 143.148438 C 119.449219 143.667969 119.746094 144.21875 119.984375 144.800781 C 120.226562 145.378906 120.40625 145.976562 120.527344 146.59375 C 120.652344 147.207031 120.710938 147.828125 120.710938 148.457031 Z M 120.710938 148.457031 " fill-opacity="1" fill-rule="nonzero"/><path fill="#590696" d="M 120.710938 148.457031 C 120.710938 149.085938 120.652344 149.707031 120.527344 150.320312 C 120.40625 150.9375 120.226562 151.535156 119.984375 152.113281 C 119.746094 152.695312 119.449219 153.246094 119.101562 153.765625 C 118.753906 154.289062 118.355469 154.773438 117.910156 155.214844 C 117.46875 155.660156 116.984375 156.054688 116.460938 156.402344 C 115.941406 156.753906 115.390625 157.046875 114.808594 157.289062 C 114.230469 157.527344 113.632812 157.707031 113.015625 157.832031 C 112.398438 157.953125 111.777344 158.015625 111.148438 158.015625 C 110.523438 158.015625 109.898438 157.953125 109.285156 157.832031 C 108.667969 157.707031 108.070312 157.527344 107.492188 157.289062 C 106.910156 157.046875 106.359375 156.753906 105.835938 156.402344 C 105.316406 156.054688 104.832031 155.660156 104.386719 155.214844 C 103.945312 154.773438 103.546875 154.289062 103.199219 153.765625 C 102.851562 153.246094 102.554688 152.695312 102.316406 152.113281 C 102.074219 151.535156 101.894531 150.9375 101.769531 150.320312 C 101.648438 149.707031 101.585938 149.085938 101.585938 148.457031 C 101.585938 147.828125 101.648438 147.207031 101.769531 146.59375 C 101.894531 145.976562 102.074219 145.378906 102.316406 144.800781 C 102.554688 144.21875 102.851562 143.667969 103.199219 143.148438 C 103.546875 142.625 103.945312 142.140625 104.386719 141.699219 C 104.832031 141.253906 105.316406 140.859375 105.835938 140.511719 C 106.359375 140.160156 106.910156 139.867188 107.492188 139.625 C 108.070312 139.386719 108.667969 139.207031 109.285156 139.082031 C 109.898438 138.960938 110.523438 138.898438 111.148438 138.898438 C 111.777344 138.898438 112.398438 138.960938 113.015625 139.082031 C 113.632812 139.207031 114.230469 139.386719 114.808594 139.625 C 115.390625 139.867188 115.941406 140.160156 116.460938 140.511719 C 116.984375 140.859375 117.46875 141.253906 117.910156 141.699219 C 118.355469 142.140625 118.753906 142.625 119.101562 143.148438 C 119.449219 143.667969 119.746094 144.21875 119.984375 144.800781 C 120.226562 145.378906 120.40625 145.976562 120.527344 146.59375 C 120.652344 147.207031 120.710938 147.828125 120.710938 148.457031 Z M 120.710938 148.457031 " fill-opacity="1" fill-rule="nonzero"/></g><g clip-path="url(#76317ab9b0)"><path fill="#0096ff" d="M 116.421875 177.492188 L 82.671875 143.757812 C 73.613281 134.695312 49.460938 145.203125 57.726562 153.464844 L 81.996094 177.730469 C 82.675781 178.410156 83.285156 179.148438 83.816406 179.945312 C 84.351562 180.742188 84.804688 181.585938 85.171875 182.472656 C 85.539062 183.359375 85.816406 184.273438 86.003906 185.214844 C 86.191406 186.15625 86.285156 187.109375 86.285156 188.066406 C 86.285156 189.027344 86.191406 189.980469 86.003906 190.921875 C 85.816406 191.863281 85.539062 192.777344 85.171875 193.664062 C 84.804688 194.550781 84.351562 195.390625 83.816406 196.191406 C 83.285156 196.988281 82.675781 197.726562 81.996094 198.40625 L 57.742188 222.65625 C 50.347656 230.039062 73.703125 240.933594 82.671875 231.964844 L 116.421875 198.234375 C 117.105469 197.554688 117.71875 196.8125 118.253906 196.011719 C 118.792969 195.210938 119.246094 194.367188 119.617188 193.476562 C 119.984375 192.585938 120.265625 191.671875 120.453125 190.726562 C 120.644531 189.78125 120.738281 188.824219 120.738281 187.863281 C 120.738281 186.898438 120.644531 185.941406 120.453125 184.996094 C 120.265625 184.054688 119.984375 183.136719 119.617188 182.246094 C 119.246094 181.355469 118.792969 180.511719 118.253906 179.710938 C 117.71875 178.910156 117.105469 178.171875 116.421875 177.492188 Z M 116.421875 177.492188 " fill-opacity="1" fill-rule="nonzero"/></g><g clip-path="url(#573954cd3c)"><path fill="#5800ff" d="M 116.421875 177.492188 L 82.671875 143.757812 C 73.613281 134.695312 49.460938 145.203125 57.726562 153.464844 L 81.996094 177.730469 C 83.167969 178.898438 84.113281 180.230469 84.832031 181.722656 C 85.550781 183.210938 86 184.78125 86.183594 186.425781 C 94.542969 196.238281 101.496094 205.765625 102.945312 211.703125 L 116.445312 198.210938 C 117.125 197.53125 117.734375 196.789062 118.269531 195.988281 C 118.804688 195.191406 119.257812 194.34375 119.625 193.457031 C 119.992188 192.566406 120.269531 191.648438 120.457031 190.707031 C 120.644531 189.761719 120.738281 188.808594 120.738281 187.84375 C 120.738281 186.882812 120.640625 185.929688 120.453125 184.984375 C 120.261719 184.042969 119.984375 183.125 119.613281 182.238281 C 119.242188 181.347656 118.789062 180.503906 118.253906 179.707031 C 117.714844 178.90625 117.105469 178.167969 116.421875 177.492188 Z M 116.421875 177.492188 " fill-opacity="1" fill-rule="nonzero"/></g><g fill="#231f20" fill-opacity="1"><g transform="translate(140.791548, 212.069544)"><g><path d="M 13.789062 0 L 13.789062 -31.902344 L 38.644531 0 L 45.789062 0 L 45.789062 -45.621094 L 37.46875 -45.621094 L 37.46875 -13.6875 L 12.613281 -45.621094 L 5.433594 -45.621094 L 5.433594 0 Z M 13.789062 0 "/></g></g></g><g fill="#231f20" fill-opacity="1"><g transform="translate(192.011536, 212.069544)"><g><path d="M 37.570312 -17.847656 C 37.570312 -27.339844 30.59375 -35.523438 20.195312 -35.523438 C 9.828125 -35.523438 2.316406 -27.304688 2.316406 -17.242188 C 2.316406 -7.179688 9.828125 1.039062 20.195312 1.039062 C 28.78125 1.039062 34.921875 -4.628906 36.664062 -10.835938 L 27.808594 -10.835938 C 26.636719 -7.917969 24.121094 -6.207031 20.027344 -6.207031 C 15.261719 -6.207031 11.304688 -9.460938 10.464844 -15.09375 L 37.402344 -15.09375 C 37.539062 -16.371094 37.570312 -16.972656 37.570312 -17.847656 Z M 10.800781 -21.367188 C 12.175781 -26.234375 16.066406 -28.445312 20.160156 -28.445312 C 24.925781 -28.445312 28.949219 -25.226562 29.285156 -21.367188 Z M 10.800781 -21.367188 "/></g></g></g><g fill="#231f20" fill-opacity="1"><g transform="translate(231.424428, 212.069544)"><g><path d="M 10.265625 0 L 17.847656 -12.109375 L 25.394531 0 L 35.023438 0 L 23.582031 -17.777344 L 34.519531 -34.484375 L 25.023438 -34.484375 L 17.945312 -23.144531 L 17.914062 -23.144531 L 10.835938 -34.484375 L 1.308594 -34.484375 L 12.277344 -17.777344 L 0.871094 0 Z M 10.265625 0 "/></g></g></g><g fill="#231f20" fill-opacity="1"><g transform="translate(267.315317, 212.069544)"><g><path d="M 20.261719 1.039062 C 29.386719 1.039062 36.429688 -3.789062 36.429688 -16.066406 L 36.429688 -34.484375 L 28.347656 -34.484375 L 28.347656 -16.304688 C 28.347656 -9.996094 25.664062 -6.507812 20.226562 -6.507812 C 14.828125 -6.507812 12.078125 -9.929688 12.078125 -16.304688 L 12.078125 -34.484375 L 4.027344 -34.484375 L 4.027344 -16.066406 C 4.027344 -3.789062 11.035156 1.039062 20.261719 1.039062 Z M 20.261719 1.039062 "/></g></g></g><g fill="#231f20" fill-opacity="1"><g transform="translate(307.76804, 212.069544)"><g><path d="M 17.175781 1.039062 C 25.496094 1.039062 31.667969 -2.648438 31.667969 -10.230469 C 31.667969 -17.542969 26.097656 -19.625 18.953125 -20.699219 C 13.015625 -21.636719 11.742188 -22.476562 11.742188 -25.058594 C 11.742188 -27.136719 13.285156 -28.882812 16.773438 -28.882812 C 20.53125 -28.882812 22.542969 -27.070312 22.710938 -24.523438 L 30.660156 -24.453125 C 30.660156 -31.03125 25.058594 -35.523438 16.738281 -35.523438 C 8.320312 -35.523438 3.757812 -31.230469 3.757812 -24.890625 C 3.757812 -17.746094 9.460938 -15.09375 16.101562 -14.222656 C 20.796875 -13.519531 23.382812 -12.679688 23.382812 -9.761719 C 23.382812 -7.144531 21.4375 -5.402344 17.242188 -5.402344 C 12.613281 -5.402344 10.265625 -7.78125 10.128906 -10.9375 L 2.347656 -10.96875 C 2.347656 -4.898438 7.042969 1.039062 17.175781 1.039062 Z M 17.175781 1.039062 "/></g></g></g></svg>