<svg xmlns="http://www.w3.org/2000/svg" xmlns:xlink="http://www.w3.org/1999/xlink" width="500" zoomAndPan="magnify" viewBox="0 0 375 374.999991" height="500" preserveAspectRatio="xMidYMid meet" version="1.0"><defs><g/><clipPath id="854510f512"><path d="M 18.875 139 L 82 139 L 82 236.234375 L 18.875 236.234375 Z M 18.875 139 " clip-rule="nonzero"/></clipPath><clipPath id="c59bf7bc76"><path d="M 18.875 139 L 82 139 L 82 213 L 18.875 213 Z M 18.875 139 " clip-rule="nonzero"/></clipPath><clipPath id="22ee08d195"><path d="M 104 138.734375 L 123.875 138.734375 L 123.875 158 L 104 158 Z M 104 138.734375 " clip-rule="nonzero"/></clipPath><clipPath id="4e84b7c1c5"><path d="M 59 140 L 123.875 140 L 123.875 236 L 59 236 Z M 59 140 " clip-rule="nonzero"/></clipPath><clipPath id="d75ba3f100"><path d="M 59 140 L 123.875 140 L 123.875 212 L 59 212 Z M 59 140 " clip-rule="nonzero"/></clipPath></defs><g clip-path="url(#854510f512)"><path fill="#ffffff" d="M 43.851562 143.613281 L 77.601562 177.347656 C 78.277344 178.027344 78.886719 178.765625 79.417969 179.5625 C 79.953125 180.363281 80.402344 181.203125 80.773438 182.09375 C 81.140625 182.980469 81.417969 183.894531 81.605469 184.835938 C 81.792969 185.777344 81.886719 186.730469 81.886719 187.6875 C 81.886719 188.648438 81.792969 189.601562 81.605469 190.542969 C 81.417969 191.484375 81.140625 192.398438 80.773438 193.285156 C 80.402344 194.171875 79.953125 195.015625 79.417969 195.8125 C 78.886719 196.613281 78.277344 197.351562 77.601562 198.03125 L 43.851562 231.765625 C 34.632812 240.976562 18.867188 234.449219 18.875 221.414062 L 18.875 153.945312 C 18.867188 140.929688 34.632812 134.398438 43.851562 143.613281 Z M 43.851562 143.613281 " fill-opacity="1" fill-rule="nonzero"/></g><g clip-path="url(#c59bf7bc76)"><path fill="#ffffff" d="M 43.851562 143.613281 C 34.683594 134.453125 19.101562 140.855469 18.882812 153.726562 C 18.882812 153.726562 71.988281 203.953125 63.546875 212.140625 L 77.628906 198.058594 C 78.308594 197.382812 78.914062 196.640625 79.449219 195.84375 C 79.984375 195.046875 80.433594 194.203125 80.800781 193.316406 C 81.167969 192.429688 81.445312 191.515625 81.632812 190.570312 C 81.820312 189.628906 81.914062 188.679688 81.914062 187.71875 C 81.914062 186.757812 81.820312 185.808594 81.632812 184.867188 C 81.445312 183.925781 81.167969 183.007812 80.800781 182.121094 C 80.433594 181.234375 79.984375 180.390625 79.449219 179.59375 C 78.914062 178.796875 78.308594 178.054688 77.628906 177.378906 Z M 43.851562 143.613281 " fill-opacity="1" fill-rule="nonzero"/></g><g clip-path="url(#22ee08d195)"><path fill="#ffffff" d="M 123.875 148.394531 C 123.875 149.023438 123.8125 149.644531 123.691406 150.261719 C 123.570312 150.875 123.386719 151.472656 123.148438 152.054688 C 122.90625 152.632812 122.613281 153.183594 122.261719 153.707031 C 121.914062 154.226562 121.519531 154.710938 121.074219 155.15625 C 120.628906 155.597656 120.148438 155.996094 119.625 156.34375 C 119.101562 156.691406 118.550781 156.984375 117.972656 157.226562 C 117.390625 157.464844 116.792969 157.648438 116.179688 157.769531 C 115.5625 157.894531 114.941406 157.953125 114.3125 157.953125 C 113.683594 157.953125 113.0625 157.894531 112.445312 157.769531 C 111.832031 157.648438 111.234375 157.464844 110.652344 157.226562 C 110.074219 156.984375 109.523438 156.691406 109 156.34375 C 108.476562 155.996094 107.996094 155.597656 107.550781 155.15625 C 107.105469 154.710938 106.710938 154.226562 106.363281 153.707031 C 106.011719 153.183594 105.71875 152.632812 105.476562 152.054688 C 105.238281 151.472656 105.054688 150.875 104.933594 150.261719 C 104.8125 149.644531 104.75 149.023438 104.75 148.394531 C 104.75 147.769531 104.8125 147.148438 104.933594 146.53125 C 105.054688 145.914062 105.238281 145.316406 105.476562 144.738281 C 105.71875 144.160156 106.011719 143.609375 106.363281 143.085938 C 106.710938 142.5625 107.105469 142.082031 107.550781 141.636719 C 107.996094 141.195312 108.476562 140.796875 109 140.449219 C 109.523438 140.101562 110.074219 139.804688 110.652344 139.566406 C 111.234375 139.324219 111.832031 139.144531 112.445312 139.023438 C 113.0625 138.898438 113.683594 138.835938 114.3125 138.835938 C 114.941406 138.835938 115.5625 138.898438 116.179688 139.023438 C 116.792969 139.144531 117.390625 139.324219 117.972656 139.566406 C 118.550781 139.804688 119.101562 140.101562 119.625 140.449219 C 120.148438 140.796875 120.628906 141.195312 121.074219 141.636719 C 121.519531 142.082031 121.914062 142.5625 122.261719 143.085938 C 122.613281 143.609375 122.90625 144.160156 123.148438 144.738281 C 123.386719 145.316406 123.570312 145.914062 123.691406 146.53125 C 123.8125 147.148438 123.875 147.769531 123.875 148.394531 Z M 123.875 148.394531 " fill-opacity="1" fill-rule="nonzero"/><path fill="#ffffff" d="M 123.875 148.394531 C 123.875 149.023438 123.8125 149.644531 123.691406 150.261719 C 123.570312 150.875 123.386719 151.472656 123.148438 152.054688 C 122.90625 152.632812 122.613281 153.183594 122.261719 153.707031 C 121.914062 154.226562 121.519531 154.710938 121.074219 155.15625 C 120.628906 155.597656 120.148438 155.996094 119.625 156.34375 C 119.101562 156.691406 118.550781 156.984375 117.972656 157.226562 C 117.390625 157.464844 116.792969 157.648438 116.179688 157.769531 C 115.5625 157.894531 114.941406 157.953125 114.3125 157.953125 C 113.683594 157.953125 113.0625 157.894531 112.445312 157.769531 C 111.832031 157.648438 111.234375 157.464844 110.652344 157.226562 C 110.074219 156.984375 109.523438 156.691406 109 156.34375 C 108.476562 155.996094 107.996094 155.597656 107.550781 155.15625 C 107.105469 154.710938 106.710938 154.226562 106.363281 153.707031 C 106.011719 153.183594 105.71875 152.632812 105.476562 152.054688 C 105.238281 151.472656 105.054688 150.875 104.933594 150.261719 C 104.8125 149.644531 104.75 149.023438 104.75 148.394531 C 104.75 147.769531 104.8125 147.148438 104.933594 146.53125 C 105.054688 145.914062 105.238281 145.316406 105.476562 144.738281 C 105.71875 144.160156 106.011719 143.609375 106.363281 143.085938 C 106.710938 142.5625 107.105469 142.082031 107.550781 141.636719 C 107.996094 141.195312 108.476562 140.796875 109 140.449219 C 109.523438 140.101562 110.074219 139.804688 110.652344 139.566406 C 111.234375 139.324219 111.832031 139.144531 112.445312 139.023438 C 113.0625 138.898438 113.683594 138.835938 114.3125 138.835938 C 114.941406 138.835938 115.5625 138.898438 116.179688 139.023438 C 116.792969 139.144531 117.390625 139.324219 117.972656 139.566406 C 118.550781 139.804688 119.101562 140.101562 119.625 140.449219 C 120.148438 140.796875 120.628906 141.195312 121.074219 141.636719 C 121.519531 142.082031 121.914062 142.5625 122.261719 143.085938 C 122.613281 143.609375 122.90625 144.160156 123.148438 144.738281 C 123.386719 145.316406 123.570312 145.914062 123.691406 146.53125 C 123.8125 147.148438 123.875 147.769531 123.875 148.394531 Z M 123.875 148.394531 " fill-opacity="1" fill-rule="nonzero"/></g><g clip-path="url(#4e84b7c1c5)"><path fill="#ffffff" d="M 119.585938 177.429688 L 85.835938 143.695312 C 76.773438 134.632812 52.625 145.140625 60.890625 153.402344 L 85.160156 177.667969 C 85.839844 178.347656 86.445312 179.085938 86.980469 179.882812 C 87.515625 180.683594 87.964844 181.523438 88.332031 182.414062 C 88.699219 183.300781 88.980469 184.214844 89.167969 185.15625 C 89.355469 186.097656 89.449219 187.046875 89.449219 188.007812 C 89.449219 188.96875 89.355469 189.917969 89.167969 190.859375 C 88.980469 191.800781 88.699219 192.714844 88.332031 193.601562 C 87.964844 194.488281 87.515625 195.332031 86.980469 196.128906 C 86.445312 196.929688 85.839844 197.667969 85.160156 198.34375 L 60.90625 222.597656 C 53.511719 229.980469 76.863281 240.875 85.835938 231.90625 L 119.585938 198.171875 C 120.269531 197.492188 120.878906 196.753906 121.417969 195.953125 C 121.953125 195.152344 122.40625 194.308594 122.777344 193.417969 C 123.148438 192.527344 123.429688 191.609375 123.617188 190.664062 C 123.804688 189.71875 123.898438 188.765625 123.898438 187.800781 C 123.898438 186.835938 123.804688 185.882812 123.617188 184.9375 C 123.429688 183.992188 123.148438 183.074219 122.777344 182.183594 C 122.40625 181.296875 121.953125 180.449219 121.417969 179.648438 C 120.878906 178.847656 120.269531 178.109375 119.585938 177.429688 Z M 119.585938 177.429688 " fill-opacity="1" fill-rule="nonzero"/></g><g clip-path="url(#d75ba3f100)"><path fill="#ffffff" d="M 119.585938 177.429688 L 85.835938 143.695312 C 76.773438 134.632812 52.625 145.140625 60.890625 153.402344 L 85.160156 177.667969 C 86.332031 178.839844 87.277344 180.167969 87.996094 181.660156 C 88.710938 183.152344 89.164062 184.722656 89.34375 186.367188 C 97.707031 196.179688 104.660156 205.707031 106.109375 211.644531 L 119.609375 198.148438 C 120.289062 197.46875 120.898438 196.730469 121.433594 195.929688 C 121.96875 195.128906 122.417969 194.285156 122.789062 193.394531 C 123.15625 192.507812 123.433594 191.589844 123.621094 190.644531 C 123.808594 189.703125 123.902344 188.746094 123.898438 187.785156 C 123.898438 186.824219 123.804688 185.871094 123.613281 184.925781 C 123.425781 183.980469 123.144531 183.066406 122.773438 182.175781 C 122.40625 181.289062 121.953125 180.445312 121.414062 179.644531 C 120.878906 178.847656 120.269531 178.109375 119.585938 177.429688 Z M 119.585938 177.429688 " fill-opacity="1" fill-rule="nonzero"/></g><g fill="#ffffff" fill-opacity="1"><g transform="translate(144.108468, 211.111547)"><g><path d="M 13.804688 0 L 13.804688 -31.941406 L 38.695312 0 L 45.847656 0 L 45.847656 -45.679688 L 37.519531 -45.679688 L 37.519531 -13.703125 L 12.628906 -45.679688 L 5.441406 -45.679688 L 5.441406 0 Z M 13.804688 0 "/></g></g></g><g fill="#ffffff" fill-opacity="1"><g transform="translate(195.388301, 211.111547)"><g><path d="M 37.617188 -17.867188 C 37.617188 -27.375 30.632812 -35.570312 20.21875 -35.570312 C 9.839844 -35.570312 2.316406 -27.339844 2.316406 -17.265625 C 2.316406 -7.1875 9.839844 1.042969 20.21875 1.042969 C 28.820312 1.042969 34.964844 -4.636719 36.710938 -10.847656 L 27.84375 -10.847656 C 26.667969 -7.925781 24.148438 -6.214844 20.050781 -6.214844 C 15.28125 -6.214844 11.320312 -9.472656 10.480469 -15.113281 L 37.449219 -15.113281 C 37.585938 -16.390625 37.617188 -16.996094 37.617188 -17.867188 Z M 10.816406 -21.394531 C 12.191406 -26.265625 16.089844 -28.484375 20.1875 -28.484375 C 24.957031 -28.484375 28.988281 -25.257812 29.324219 -21.394531 Z M 10.816406 -21.394531 "/></g></g></g><g fill="#ffffff" fill-opacity="1"><g transform="translate(234.847242, 211.111547)"><g><path d="M 10.277344 0 L 17.867188 -12.125 L 25.425781 0 L 35.066406 0 L 23.613281 -17.800781 L 34.5625 -34.527344 L 25.058594 -34.527344 L 17.96875 -23.175781 L 17.9375 -23.175781 L 10.847656 -34.527344 L 1.308594 -34.527344 L 12.292969 -17.800781 L 0.875 0 Z M 10.277344 0 "/></g></g></g><g fill="#ffffff" fill-opacity="1"><g transform="translate(270.780065, 211.111547)"><g><path d="M 20.289062 1.042969 C 29.421875 1.042969 36.476562 -3.796875 36.476562 -16.089844 L 36.476562 -34.527344 L 28.382812 -34.527344 L 28.382812 -16.324219 C 28.382812 -10.007812 25.695312 -6.515625 20.253906 -6.515625 C 14.847656 -6.515625 12.09375 -9.941406 12.09375 -16.324219 L 12.09375 -34.527344 L 4.03125 -34.527344 L 4.03125 -16.089844 C 4.03125 -3.796875 11.050781 1.042969 20.289062 1.042969 Z M 20.289062 1.042969 "/></g></g></g><g fill="#ffffff" fill-opacity="1"><g transform="translate(311.280051, 211.111547)"><g><path d="M 17.199219 1.042969 C 25.527344 1.042969 31.707031 -2.652344 31.707031 -10.246094 C 31.707031 -17.566406 26.132812 -19.648438 18.976562 -20.722656 C 13.03125 -21.664062 11.757812 -22.503906 11.757812 -25.089844 C 11.757812 -27.171875 13.300781 -28.917969 16.792969 -28.917969 C 20.554688 -28.917969 22.570312 -27.105469 22.738281 -24.554688 L 30.699219 -24.484375 C 30.699219 -31.070312 25.089844 -35.570312 16.761719 -35.570312 C 8.328125 -35.570312 3.761719 -31.269531 3.761719 -24.921875 C 3.761719 -17.769531 9.472656 -15.113281 16.121094 -14.242188 C 20.824219 -13.535156 23.410156 -12.695312 23.410156 -9.773438 C 23.410156 -7.15625 21.464844 -5.40625 17.265625 -5.40625 C 12.628906 -5.40625 10.277344 -7.792969 10.144531 -10.949219 L 2.351562 -10.984375 C 2.351562 -4.902344 7.054688 1.042969 17.199219 1.042969 Z M 17.199219 1.042969 "/></g></g></g></svg>